<?xml version="1.0" encoding="utf-8"?>
<!-- Generator: Adobe Illustrator 22.0.1, SVG Export Plug-In . SVG Version: 6.00 Build 0)  -->
<svg version="1.1" id="Layer_1" xmlns:sketch="http://www.bohemiancoding.com/sketch/ns"
	 xmlns="http://www.w3.org/2000/svg" xmlns:xlink="http://www.w3.org/1999/xlink" x="0px" y="0px" viewBox="0 0 32 20.7"
	 style="enable-background:new 0 0 32 20.7;" xml:space="preserve">
<style type="text/css">
	.st0{fill:#FFFFFF;}
	.st1{fill:#E3E3E3;}
</style>
<path class="st0" d="M5.6,19.4C2.9,19,1,16.9,0.9,14.5C0.9,12.7,2,11,3.7,10c0-4.2,3-7.8,6.8-8.4c3.3-0.5,6.6,1.1,8.4,4.1
	c0.6-0.1,2.3-0.4,4.2,0.4c2.3,1,3.4,3,3.6,3.5c2.2,0.4,3.8,2.2,4,4.4c0.2,2.2-1.1,4.3-3.3,5.1C20.3,19.2,12.9,19.3,5.6,19.4z"/>
<title></title>
<g id="Icons_new_Arranged_Names">
	<g id="_x32_7_Cloud">
		<path id="Rectangle_1_copy_2" class="st1" d="M0,14.3c0-2.2,1.2-4.2,3-5.2c0.1-4.9,4.1-8.8,9-8.8c3.2,0,6.1,1.7,7.7,4.3
			c0.6-0.2,1.2-0.3,1.8-0.3c2.8,0,5.2,1.8,6.1,4.2c2.5,0.7,4.4,3,4.4,5.8c0,3.3-2.7,6-6,6H6C2.7,20.3,0,17.6,0,14.3z M26,10.3
			c-0.2-2.2-2.2-4-4.5-4c-1.1,0-2,0.4-2.8,1c-0.9-2.9-3.5-5-6.7-5c-3.9,0-7,3.1-7,7c0,0.4,0,0.7,0.1,1.1c-1.8,0.4-3.1,2-3.1,3.9
			c0,2.2,1.8,4,4,4h20c2.2,0,4-1.8,4-4C30,12.1,28.2,10.3,26,10.3L26,10.3z"/>
	</g>
</g>
</svg>
